<svg height="1200pt" preserveAspectRatio="xMidYMid meet" viewBox="0 0 1200 1200" width="1200pt" xmlns="http://www.w3.org/2000/svg"><path d="m0 6000v-6000h6000 6000v6000 6000h-6000-6000zm6939 1975c63-34 95-71 129-144 21-46 24-63 19-125-5-69-26-117-821-1836-797-1726-817-1766-865-1812-65-60-130-82-221-76-116 9-197 66-248 177-21 46-24 63-19 125 5 69 26 117 818 1831 747 1616 818 1764 860 1806 63 64 132 90 225 86 54-3 82-10 123-32zm-2673-78c96-49 145-125 152-237 8-132 13-125-416-551-207-206-546-542-753-746l-376-373 641-631c831-819 859-847 881-894 24-50 31-152 15-209-17-63-76-134-140-170-50-28-63-31-140-31-76 0-90 3-137 30-35 20-329 303-916 882-681 672-869 863-887 900-31 66-36 137-15 209 16 55 27 69 188 232 365 369 1589 1567 1615 1581 93 50 200 53 288 8zm3736 2c34-17 248-221 745-711 384-377 780-769 880-870 171-173 182-187 198-242 21-72 16-143-15-209-33-69-1725-1739-1806-1782-144-76-327-17-399 130-28 56-28 193-1 250 13 26 181 199 490 504 259 256 597 591 752 745l281 281-386 380c-212 208-550 541-750 740-417 413-417 412-409 544 3 43 12 90 21 108 38 72 104 127 187 154 47 16 162 4 212-22z" transform="matrix(.1 0 0 -.1 0 1200)"/></svg>